<svg width="69" height="80" viewBox="0 0 69 80" fill="none" xmlns="http://www.w3.org/2000/svg">
<path d="M15.2378 33.5825L15.1762 24.989L30.1478 15.5308L27.83 12.3491L15.0862 12.4405L15.0319 4.87233L50.7243 4.61624L50.7786 12.1844L34.446 12.3016C35.1495 12.8011 35.8529 13.2925 36.5562 13.7757C37.2596 14.259 37.963 14.7504 38.6665 15.2499L50.8693 24.8306L50.9296 33.2288L35.0448 20.8913L15.2378 33.5825Z" fill="#DADADA"/>
<path d="M24.7497 26.6487L27.3841 35.1305L40.3966 35.0594L42.9379 26.5492L51.0921 26.5046L38.6907 62.4129L29.4379 62.4635L16.5956 26.6933L24.7497 26.6487ZM29.2254 41.4682L31.8587 49.7547C32.0244 50.3072 32.248 51.014 32.5294 51.8751C32.7947 52.7526 33.0681 53.6381 33.3496 54.5318C33.615 55.4418 33.831 56.23 33.9974 56.8964C34.1565 56.2283 34.3798 55.3969 34.6673 54.4025C34.9387 53.4245 35.2021 52.4953 35.4577 51.6149C35.7134 50.7346 35.8971 50.107 36.009 49.732L38.527 41.4173L29.2254 41.4682Z" fill="#DADADA"/>
<circle cx="33.4998" cy="28.5" r="4.5" fill="#E4AA48"/>
<circle cx="33.9998" cy="42" r="1" fill="#E4AA48"/>
<circle cx="36.9998" cy="42" r="1" fill="#E4AA48"/>
<circle cx="30.9998" cy="42" r="1" fill="#E4AA48"/>
</svg>
